<?xml version="1.0" encoding="UTF-8"?>
<svg version="1.1" xmlns="http://www.w3.org/2000/svg" viewBox="0 0 512 512">
<!-- outline -->
<path d="M0 0 C0.74490189 -0.00988449 1.48980377 -0.01976898 2.25727844 -0.029953 C54.19167221 -0.57626188 97.04567884 15.58953654 134.96875 51.23828125 C135.65582031 51.85960937 136.34289062 52.4809375 137.05078125 53.12109375 C164.43865964 78.83687009 183.06540583 120.80953146 185.07661438 158.24606323 C185.13179035 160.31290993 185.1590186 162.37777177 185.171875 164.4453125 C185.17893463 165.20402145 185.18599426 165.96273041 185.19326782 166.74443054 C185.42132387 198.44644874 185.42132387 198.44644874 181.96875 212.23828125 C181.76475586 213.07133789 181.56076172 213.90439453 181.35058594 214.76269531 C173.9489356 244.22923634 160.5015899 269.11970262 140.96875 292.23828125 C141.95315822 294.72590743 142.95018133 297.1966034 144.0390625 299.640625 C147.93129835 308.99640672 148.53842478 318.4218729 145.34375 328.11328125 C141.19158036 338.03478135 133.93850746 345.91143599 124.125 350.421875 C113.76264164 354.34530416 104.41351445 353.2809365 93.96875 350.23828125 C93.20320801 351.03000732 92.43766602 351.8217334 91.64892578 352.63745117 C88.77326612 355.60441563 85.88042916 358.55414129 82.98242188 361.49926758 C81.73654823 362.77010379 80.49521999 364.0454143 79.25878906 365.32543945 C68.60147898 376.34861034 59.25740222 383.9137021 43.25 384.3046875 C29.81949834 383.66789647 21.11555661 377.32988809 11.96875 368.23828125 C-1.25143766 374.42344739 -14.35486225 380.82103132 -27.40380859 387.359375 C-30.42265841 388.87150013 -33.44364613 390.37929091 -36.46484375 391.88671875 C-38.43254611 392.87058504 -40.39999903 393.85495037 -42.3671875 394.83984375 C-43.30935623 395.31134354 -44.25152496 395.78284332 -45.22224426 396.26863098 C-51.40301427 399.37731446 -57.48410217 402.61277414 -63.48852539 406.05200195 C-67.61342627 407.97642762 -70.55306238 407.87802234 -75.03125 407.23828125 C-75.62421875 406.83609375 -76.2171875 406.43390625 -76.828125 406.01953125 C-79.80759693 404.96298092 -81.53861427 405.89718836 -84.31054688 407.20898438 C-84.94025391 407.52802734 -85.56996094 407.84707031 -86.21875 408.17578125 C-86.86005859 408.46001953 -87.50136719 408.74425781 -88.16210938 409.03710938 C-90.30298107 410.02562953 -90.30298107 410.02562953 -93.03125 412.23828125 C-93.40374022 414.56568465 -93.73605419 416.89981701 -94.03125 419.23828125 C-97.86351721 422.89808452 -101.70264792 425.31883442 -106.46948242 427.67651367 C-107.08357468 427.98304871 -107.69766693 428.28958374 -108.33036804 428.60540771 C-110.34550557 429.60906228 -112.36602762 430.60133116 -114.38671875 431.59375 C-115.81274439 432.30174733 -117.23838127 433.01052818 -118.66365051 433.720047 C-122.41595717 435.58576155 -126.17277629 437.44219363 -129.93084717 439.29626465 C-135.89795555 442.24217122 -141.85784337 445.20266192 -147.81820107 448.16219521 C-149.86741986 449.17819426 -151.91839551 450.19056105 -153.96977234 451.20219421 C-161.11892316 454.736315 -168.20963115 458.36327925 -175.2578125 462.0949707 C-185.26316244 467.39128945 -195.36391308 472.48652309 -205.48828125 477.55078125 C-207.37492065 478.4957134 -209.26153201 479.44070154 -211.14811707 480.38574219 C-215.05743618 482.34336161 -218.96755034 484.2993822 -222.87817383 486.25439453 C-227.88215376 488.75633316 -232.88333248 491.26381881 -237.88387012 493.77262878 C-241.75925599 495.71587582 -245.63645018 497.6554926 -249.51416588 499.59408569 C-251.36035167 500.51776682 -253.20589232 501.44273862 -255.05076027 502.36904907 C-257.61764919 503.65739406 -260.18702425 504.94064309 -262.75708008 506.22265625 C-263.50982208 506.60183701 -264.26256409 506.98101776 -265.03811646 507.37168884 C-276.04858067 512.8441393 -287.55540256 514.30196584 -299.625 511.36328125 C-310.00958579 507.295093 -317.68490428 501.02095639 -323.03125 491.23828125 C-323.44503906 490.52414062 -323.85882813 489.81 -324.28515625 489.07421875 C-326.99272069 483.58361768 -327.43751099 478.32445031 -327.53125 472.30078125 C-327.54978027 471.57383057 -327.56831055 470.84687988 -327.58740234 470.09790039 C-327.43599556 456.72511886 -319.22454014 444.21449902 -313.3671875 432.58203125 C-312.40990039 430.67052313 -311.45309169 428.75877536 -310.49673462 426.84680176 C-308.49480153 422.84752188 -306.48897901 418.85022736 -304.47998047 414.85449219 C-301.93322389 409.78908981 -299.39328962 404.72030834 -296.85597801 399.65016937 C-294.40388488 394.75120087 -291.9480855 389.8540931 -289.4921875 384.95703125 C-289.03768597 384.04990891 -288.58318443 383.14278656 -288.11491013 382.20817566 C-283.49429658 372.9916159 -278.82983098 363.80458835 -274.00439453 354.69335938 C-269.30723244 345.82253493 -264.78761585 336.86969254 -260.31617737 327.88330078 C-258.95365472 325.14514474 -257.58839335 322.4083681 -256.22253418 319.671875 C-253.32313959 313.86182243 -250.42693348 308.05018411 -247.53125 302.23828125 C-244.16773769 295.48740293 -240.80280991 288.73723736 -237.4344635 281.98876953 C-236.10919538 279.33189533 -234.78639775 276.67380195 -233.46374512 274.015625 C-228.96619522 264.99365053 -224.37196665 256.03273164 -219.65476418 247.12361431 C-215.59999826 239.45416913 -211.70332456 231.71050368 -207.8359375 223.9453125 C-207.11053985 222.49264277 -206.38495999 221.04006402 -205.65921021 219.58757019 C-203.78669535 215.83879573 -201.91658877 212.08882539 -200.04705811 208.33856201 C-198.12403006 204.48211452 -196.19862068 200.62685631 -194.2734375 196.77148438 C-190.52376762 189.26154998 -186.77665219 181.75034496 -183.03125 174.23828125 C-183.44357376 173.76047714 -183.85589752 173.28267303 -184.28071594 172.79039001 C-184.8214122 172.16209793 -185.36210846 171.53380585 -185.91918945 170.88647461 C-186.45526321 170.2642955 -186.99133698 169.64211639 -187.5436554 169.00108337 C-195.73526098 159.29401689 -199.80053077 149.25291815 -198.81640625 136.44140625 C-197.27248262 126.0309498 -193.17950561 118.90004085 -185.53125 111.8125 C-184.929711 111.25237717 -184.328172 110.69225433 -183.70840454 110.11515808 C-181.18458689 107.78404266 -178.65108677 105.46838867 -176.06591797 103.20532227 C-169.80519427 97.85220769 -169.80519427 97.85220769 -165.03125 91.23828125 C-164.87927547 87.3609205 -165.51327241 84.80713014 -166.92407227 81.21118164 C-169.30992862 74.80488113 -167.87157248 67.69100532 -165.34375 61.48828125 C-160.08560997 51.08467563 -152.17534856 43.09585383 -141.03125 39.23828125 C-131.87194375 37.0741856 -122.73263133 37.64213841 -114.03125 41.23828125 C-113.103125 41.83640625 -112.175 42.43453125 -111.21875 43.05078125 C-109.06339838 44.55428512 -109.06339838 44.55428512 -106.63671875 43.53125 C-103.94864385 42.19728779 -102.29068831 40.82985935 -100.15625 38.73828125 C-91.46014866 30.80273003 -81.3212357 24.75359249 -71.03125 19.11328125 C-70.33773438 18.72277588 -69.64421875 18.33227051 -68.9296875 17.92993164 C-64.49108665 15.57299603 -61.1664882 14.57215365 -56.03125 15.23828125 C-55.22042969 15.78097656 -54.40960938 16.32367187 -53.57421875 16.8828125 C-50.94398092 18.63661654 -50.94398092 18.63661654 -47.33203125 17.4375 C-45.9947884 16.95471697 -44.66528464 16.45003699 -43.34375 15.92578125 C-36.13355179 13.23828125 -36.13355179 13.23828125 -34.03125 13.23828125 C-34.11375 12.49578125 -34.19625 11.75328125 -34.28125 10.98828125 C-34.03125 8.23828125 -34.03125 8.23828125 -32.4375 6.171875 C-29.42430712 3.75055929 -27.06619247 3.265623 -23.28125 2.55078125 C-22.11078125 2.32003906 -20.9403125 2.08929688 -19.734375 1.8515625 C-13.12790923 0.75745372 -6.69680107 0.07345196 0 0 Z " fill="#020101" transform="translate(327.03125,-0.23828125)"/>
<!-- right cheek -->
<path d="M0 0 C0.28875 0.639375 0.5775 1.27875 0.875 1.9375 C1.82823451 4.15206079 1.82823451 4.15206079 4 5 C8.65307297 5.23679761 12.90304764 4.75610682 17.45361328 3.93188477 C57.27621625 -3.17097717 99.21833369 5.90544869 132.62719727 28.70166016 C169.25278832 54.59895614 192.965312 91.23139791 201.6328125 135.2109375 C205.63492068 160.93877581 203.39241921 187.40728898 195 212 C194.77973145 212.66306152 194.55946289 213.32612305 194.33251953 214.00927734 C187.29022769 234.98272603 175.86075158 252.54556962 161.4453125 269.16015625 C160.63835937 270.09730469 159.83140625 271.03445313 159 272 C158.236875 272.87785156 157.47375 273.75570313 156.6875 274.66015625 C154.68853763 276.97605702 154.68853763 276.97605702 154.875 280.375 C156.11446686 284.36883767 157.66343802 286.37587354 160.52734375 289.32421875 C164.66713234 294.03501266 164.42390861 298.68085959 164.30859375 304.73828125 C163.62371164 311.97722504 160.35703394 316.22315975 154.87890625 320.7734375 C149.1963822 324.483027 143.60351821 324.74092771 137 324 C131.13978313 322.26071135 127.46645089 319.00724955 124 314 C122.57275995 311.31435528 121.38415336 308.54448062 120.1875 305.75 C113.83163389 291.66561816 103.33011153 279.45642387 89 273 C83.25323584 270.97062292 77.38714061 269.33881086 71.51904297 267.70288086 C56.25842823 263.44475818 44.46816295 257.23784037 36.375 242.96484375 C32.71575337 235.07459321 30.63379704 226.52906096 28.5 218.125 C24.55715592 203.55172546 14.57163406 190.59991111 1.57421875 182.90234375 C-6.64980551 178.34813428 -14.85380503 175.82406764 -23.97973633 173.70874023 C-37.57389914 170.52915128 -48.60435981 163.1549152 -56.4375 151.375 C-60.20650809 144.42278274 -61.96513363 136.59374319 -64 129 C-68.66682837 111.8452554 -77.53405455 97.71534365 -93.09765625 88.515625 C-96.28901877 86.8490723 -99.52883782 85.35097074 -102.8125 83.875 C-109.90559008 80.68142863 -115.01284715 77.63525634 -118.3046875 70.3046875 C-120.07941589 64.42216082 -119.9280628 58.3263067 -117.4375 52.6875 C-114.42427621 47.46529365 -109.61906287 43.2233702 -104 41 C-96.27134595 40.12081449 -89.42359511 40.35251414 -83 45 C-81.97004621 45.92747083 -80.94880655 46.86473104 -79.9375 47.8125 C-77.16705665 50.33589583 -77.16705665 50.33589583 -73.68359375 49.96875 C-69.33272813 48.82451387 -67.14100287 46.83280211 -64.125 43.6875 C-55.39973202 35.17735456 -45.72971687 27.73820255 -34.76171875 22.33984375 C-33.46161865 21.69909912 -33.46161865 21.69909912 -32.13525391 21.04541016 C-30.46125076 20.2431976 -28.77220644 19.47141617 -27.06787109 18.73583984 C-22.63440118 16.74983756 -22.63440118 16.74983756 -20.19384766 12.7824707 C-19.91083661 11.19041364 -19.65805145 9.59261738 -19.43920898 7.99047852 C-19 6 -19 6 -16.828125 4.31640625 C-15.97734375 4.06761719 -15.1265625 3.81882812 -14.25 3.5625 C-13.35667969 3.28019531 -12.46335937 2.99789063 -11.54296875 2.70703125 C-10.70378906 2.47371094 -9.86460937 2.24039062 -9 2 C-7.865625 1.5875 -6.73125 1.175 -5.5625 0.75 C-3 0 -3 0 0 0 Z " fill="#DBAFC1" transform="translate(294,13)"/>
<!-- right upper cone -->
<path d="M0 0 C4.69041847 2.31931122 9.37257355 4.65379251 14.04296875 7.01318359 C15.608858 7.80276997 17.17877597 8.58436479 18.75 9.36328125 C27.99928469 14.16960597 34.86835024 20.94963588 40 30 C40.50402344 30.87527344 41.00804687 31.75054687 41.52734375 32.65234375 C43.08100167 36.18413378 43.86348799 39.47028339 44.63378906 43.2331543 C48.5549844 62.38442447 56.88968364 75.58448774 72.0546875 88.11328125 C80.2865992 93.38650851 89.09704694 96.0149391 98.5 98.375 C113.63044213 102.42842865 123.92993914 108.11307258 132.71484375 121.640625 C136.45501702 128.45478291 138.31774379 135.50824858 140.18334961 142.98974609 C143.05506164 154.42859901 147.04473733 163.18304544 155 172 C155.53238281 172.62519531 156.06476563 173.25039063 156.61328125 173.89453125 C164.15193595 182.18143952 174.22521487 187.43937015 185 190 C205.00736187 194.95714882 205.00736187 194.95714882 213 201 C213.70253906 201.52335938 214.40507812 202.04671875 215.12890625 202.5859375 C223.83518856 209.62365337 228.56252859 218.57117423 232.640625 228.80078125 C233.88690126 231.73382796 235.33434538 234.29259278 237 237 C233.74172531 240.35789268 230.46996613 243.70185467 227.18554688 247.03417969 C226.07245715 248.16726118 224.96299847 249.3039225 223.85742188 250.44433594 C210.85353649 263.84725752 210.85353649 263.84725752 201.9453125 265.6015625 C201.01460937 265.60929687 200.08390625 265.61703125 199.125 265.625 C197.73667969 265.67527344 197.73667969 265.67527344 196.3203125 265.7265625 C187.22319609 263.73589938 180.36378741 256.94653414 174.01054382 250.52520752 C173.16431562 249.68592484 172.31808741 248.84664217 171.44621593 247.98192668 C169.12246251 245.67320088 166.80775897 243.3558436 164.49678314 241.03434086 C161.99344351 238.5239671 159.47858276 236.02517803 156.96525574 233.52481079 C152.05277398 228.63390287 147.15115908 223.73224447 142.25353422 218.82646373 C138.27119535 214.83781028 134.28513362 210.85291349 130.29642677 206.87062836 C129.72750087 206.30260411 129.15857497 205.73457986 128.57240889 205.14934276 C127.41643649 203.99522166 126.26045847 202.8411062 125.10447488 201.68699631 C114.28046684 190.87954318 103.46910719 180.059507 92.66181055 169.23534641 C82.78415516 159.34299088 72.8919056 149.46538146 62.99249484 139.59480086 C52.81358929 129.44531781 42.64396212 119.28662642 32.48452789 109.1176517 C31.33453073 107.96663205 30.18451962 106.81562633 29.0344944 105.6646347 C28.46874112 105.09840504 27.90298784 104.53217537 27.32009053 103.94878723 C23.34261518 99.96915181 19.35920406 95.99551881 15.37335777 92.0242691 C10.51300285 87.18146648 5.66161507 82.32989048 0.82139792 77.4669576 C-1.64592661 74.98851823 -4.11701188 72.51418057 -6.59922028 70.05064011 C-9.29304796 67.3727589 -11.97094461 64.67987499 -14.64546204 61.98272705 C-15.42561198 61.21441283 -16.20576192 60.44609862 -17.00955278 59.65450215 C-22.5970393 53.97079846 -27.01892701 47.83833512 -28.62890625 39.8984375 C-28.60699219 39.06570312 -28.58507812 38.23296875 -28.5625 37.375 C-28.56378906 36.53710938 -28.56507813 35.69921875 -28.56640625 34.8359375 C-26.5282474 24.63108699 -18.89462807 18.42637718 -11.75 11.5 C-10.61105405 10.38114929 -9.47302438 9.26136503 -8.3359375 8.140625 C-5.56774988 5.41619383 -2.78742955 2.70473538 0 0 Z " fill="#F6CE70" transform="translate(172,103)"/>
<!-- left face shadow -->
<!-- <path d="M0 0 C0.28875 0.639375 0.5775 1.27875 0.875 1.9375 C1.82823451 4.15206079 1.82823451 4.15206079 4 5 C8.65307297 5.23679761 12.90304764 4.75610682 17.45361328 3.93188477 C43.63244548 -0.73743911 72.20118479 1.01499849 97 11 C97 11.99 97 12.98 97 14 C94.91523352 15.83243163 92.85062718 17.4805912 90.625 19.125 C89.32862589 20.11182639 88.03436659 21.10143686 86.7421875 22.09375 C86.10249023 22.58488281 85.46279297 23.07601562 84.80371094 23.58203125 C81.50694817 26.1737473 78.43306397 28.99533516 75.3515625 31.8359375 C73.78280519 33.27961117 72.19393114 34.70172337 70.5859375 36.1015625 C63.53042761 42.26113463 57.19606388 48.990689 51 56 C50.51611816 56.5357666 50.03223633 57.0715332 49.53369141 57.62353516 C46.60309141 60.81915829 46.60309141 60.81915829 46 65 C46.9075 65.721875 47.815 66.44375 48.75 67.1875 C53.19486574 70.72654002 55.50611758 74.83008123 56.3828125 80.45703125 C56.72172469 87.81142571 54.37595328 92.60578103 50.25 98.5 C46.67277541 100.88481639 44.25077485 100.53978093 40 100 C37.29584199 97.80287161 37.05507255 96.44058039 36.625 93 C37 90 37 90 38.5625 88.0625 C40.39340551 85.90303037 40.39340551 85.90303037 39.6875 82.25 C39.3471875 80.64125 39.3471875 80.64125 39 79 C35.68815293 78.22868094 35.68815293 78.22868094 32 78 C30.63266972 78.95298777 29.29735507 79.95374591 28 81 C24.40549872 81.5241981 22.71889495 81.48573983 19.6875 79.4375 C18 77 18 77 18 73.625 C17.36609695 69.91631978 17.36609695 69.91631978 14.69921875 68.21484375 C7.6066409 64.32358509 1.04806657 62.47677836 -7 64 C-12.19084207 66.08651495 -15.91863363 69.31632312 -19 74 C-21.45807737 81.3742321 -20.6591864 89.53155277 -17.45703125 96.546875 C-10.69585823 107.93029767 -2.14422211 112.28926547 10 116 C8.55671012 120.70701071 6.60140423 125.03089835 4.4375 129.4375 C-2.72825085 144.37725729 -9.0085571 159.89466747 -13 176 C-30.53310589 172.58123534 -43.26439416 167.87704256 -54.91796875 153.66015625 C-59.84198927 146.25513825 -61.7253496 137.48857267 -64 129 C-68.66682837 111.8452554 -77.53405455 97.71534365 -93.09765625 88.515625 C-96.28901877 86.8490723 -99.52883782 85.35097074 -102.8125 83.875 C-109.90559008 80.68142863 -115.01284715 77.63525634 -118.3046875 70.3046875 C-120.07941589 64.42216082 -119.9280628 58.3263067 -117.4375 52.6875 C-114.42427621 47.46529365 -109.61906287 43.2233702 -104 41 C-96.27134595 40.12081449 -89.42359511 40.35251414 -83 45 C-81.97004621 45.92747083 -80.94880655 46.86473104 -79.9375 47.8125 C-77.16705665 50.33589583 -77.16705665 50.33589583 -73.68359375 49.96875 C-69.33272813 48.82451387 -67.14100287 46.83280211 -64.125 43.6875 C-55.39973202 35.17735456 -45.72971687 27.73820255 -34.76171875 22.33984375 C-33.46161865 21.69909912 -33.46161865 21.69909912 -32.13525391 21.04541016 C-30.46125076 20.2431976 -28.77220644 19.47141617 -27.06787109 18.73583984 C-22.63440118 16.74983756 -22.63440118 16.74983756 -20.19384766 12.7824707 C-19.91083661 11.19041364 -19.65805145 9.59261738 -19.43920898 7.99047852 C-19 6 -19 6 -16.828125 4.31640625 C-15.97734375 4.06761719 -15.1265625 3.81882812 -14.25 3.5625 C-13.35667969 3.28019531 -12.46335937 2.99789063 -11.54296875 2.70703125 C-10.70378906 2.47371094 -9.86460937 2.24039062 -9 2 C-7.865625 1.5875 -6.73125 1.175 -5.5625 0.75 C-3 0 -3 0 0 0 Z " fill="#F7465D" transform="translate(294,13)"/> -->
<!-- right cone middle section -->
<path d="M0 0 C2.83844361 1.29169054 4.89774525 2.64747696 7.10029221 4.84860992 C7.68998346 5.43308568 8.27967472 6.01756145 8.8872354 6.61974859 C9.8444409 7.58364626 9.8444409 7.58364626 10.82098389 8.5670166 C11.50635483 9.24926756 12.19172577 9.93151853 12.89786553 10.63444376 C15.19809299 12.92668021 17.49108956 15.22601582 19.78417969 17.52539062 C21.429654 19.16815563 23.07555365 20.81049468 24.72184753 22.45243835 C29.19517626 26.9166352 33.66213847 31.3871525 38.12773418 35.85908318 C42.32191068 40.05780189 46.52008662 44.25251542 50.7180014 48.447496 C59.53626787 57.26005906 68.34839282 66.07874285 77.15843323 74.89952856 C84.72406002 82.47409679 92.29492361 90.04339755 99.86962891 97.60888672 C108.661698 106.39026356 117.4505275 115.17486178 126.23417783 123.96466017 C130.88556149 128.61916907 135.53830296 133.27229904 140.19454193 137.92195129 C144.56892558 142.29057901 148.93842861 146.66402915 153.30413246 151.04133034 C154.91171882 152.65157238 156.52103021 154.26009425 158.13213921 155.86681175 C160.32171385 158.05096541 162.50510445 160.24111359 164.68695068 162.4329834 C165.65754051 163.39688106 165.65754051 163.39688106 166.64773822 164.38025141 C171 168.77169972 171 168.77169972 171 171 C165.40487746 173.88630475 159.79889179 176.75059467 154.18481445 179.59985352 C152.27631606 180.5717034 150.3703609 181.54856456 148.46704102 182.53051758 C145.7306597 183.94116317 142.98563674 185.33353087 140.23828125 186.72265625 C139.38913651 187.16529312 138.53999176 187.60792999 137.66511536 188.0639801 C131.7469331 191.02502578 131.7469331 191.02502578 128.15087891 190.90454102 C126.0388256 190.0163279 124.23844223 189.09768764 122.34765625 187.8046875 C121.66541992 187.34408936 120.98318359 186.88349121 120.28027344 186.40893555 C119.18247559 185.64963745 119.18247559 185.64963745 118.0625 184.875 C117.28036133 184.34366455 116.49822266 183.8123291 115.69238281 183.26489258 C114.00289563 182.11560979 112.31597024 180.96255393 110.63134766 179.80615234 C107.99235495 177.99475245 105.34678927 176.19336603 102.69921875 174.39453125 C98.06614488 171.24449258 93.43943883 168.08523833 88.81445312 164.92333984 C84.21229808 161.77832098 79.60597028 158.63942738 75 155.5 C73.166646 154.25003031 71.33331268 153.00003029 69.5 151.75 C68.13875 150.821875 68.13875 150.821875 66.75 149.875 C49.33333333 138 31.91666667 126.125 14.5 114.25 C13.59185547 113.63084717 12.68371094 113.01169434 11.74804688 112.3737793 C9.92108611 111.12805045 8.0942624 109.88212057 6.26757812 108.63598633 C1.58786789 105.44394629 -3.09442432 102.25580381 -7.78125 99.07421875 C-17.94380727 92.17026075 -28.05409066 85.21333015 -38 78 C-37.38669854 73.60605186 -35.68625957 70.06459621 -33.6328125 66.19140625 C-33.28583313 65.52393372 -32.93885376 64.85646118 -32.58135986 64.16876221 C-31.82839135 62.72130778 -31.07271396 61.27525998 -30.31463623 59.83047485 C-28.27439229 55.94086404 -26.25496013 52.0404745 -24.234375 48.140625 C-23.81131073 47.32507645 -23.38824646 46.50952789 -22.95236206 45.66926575 C-17.99760379 36.09834701 -13.18278974 26.4578537 -8.375 16.8125 C-7.74105316 15.54153976 -7.74105316 15.54153976 -7.09429932 14.24490356 C-4.72676126 9.49797877 -2.36199324 4.74968611 0 0 Z " fill="#D99C80" transform="translate(156,185)"/>
<!-- right cone middle section -->
<path d="M0 0 C3.58950714 0.49100566 6.07279786 2.18046649 9.04296875 4.17578125 C10.02620117 4.83320313 11.00943359 5.490625 12.02246094 6.16796875 C13.58915527 7.22951172 13.58915527 7.22951172 15.1875 8.3125 C16.26161133 9.034375 17.33572266 9.75625 18.44238281 10.5 C25.47188737 15.24087744 32.43359323 20.06999817 39.33984375 24.98828125 C44.01825985 28.31960477 48.7577161 31.53826343 53.55078125 34.703125 C58.18944575 37.77763806 62.77884687 40.92497524 67.375 44.0625 C68.32076904 44.70807861 69.26653809 45.35365723 70.2409668 46.01879883 C72.19037408 47.34977797 74.13967301 48.68091582 76.08886719 50.01220703 C80.72419494 53.17732264 85.36218408 56.33853196 90 59.5 C91.83334712 60.74997978 93.66668043 61.99997982 95.5 63.25 C96.4075 63.86875 97.315 64.4875 98.25 65.125 C101 67 103.75 68.875 106.5 70.75 C107.40814453 71.36915283 108.31628906 71.98830566 109.25195312 72.6262207 C111.07891389 73.87194955 112.9057376 75.11787943 114.73242188 76.36401367 C119.41213211 79.55605371 124.09442432 82.74419619 128.78125 85.92578125 C138.94380727 92.82973925 149.05409066 99.78666985 159 107 C156.97624591 109.17520724 155.09716075 110.64661618 152.4609375 112.0078125 C151.79835938 112.35457031 151.13578125 112.70132813 150.453125 113.05859375 C149.76734375 113.41050781 149.0815625 113.76242187 148.375 114.125 C143.90347234 116.17288601 143.90347234 116.17288601 140 119 C139.92851801 120.35243917 139.91600546 121.70834367 139.9375 123.0625 C139.9684375 125.0115625 139.9684375 125.0115625 140 127 C137.42573716 128.39489126 134.84296943 129.76570979 132.25 131.125 C131.52039063 131.52332031 130.79078125 131.92164063 130.0390625 132.33203125 C129.33007812 132.69941406 128.62109375 133.06679688 127.890625 133.4453125 C127.24125977 133.79094238 126.59189453 134.13657227 125.92285156 134.49267578 C124 135 124 135 121.88183594 134.15966797 C121.26083008 133.77697754 120.63982422 133.39428711 120 133 C117.06503136 131.53251568 115.29353652 131.66392485 112 132 C107.9905758 133.67167571 104.24441507 135.85954343 100.45703125 137.9765625 C99.29880859 138.5953125 99.29880859 138.5953125 98.1171875 139.2265625 C97.42222168 139.61408691 96.72725586 140.00161133 96.01123047 140.40087891 C94 141 94 141 91.93041992 140.23120117 C89.07859519 138.41233787 86.2425815 136.57746169 83.4375 134.6875 C82.78185059 134.24801025 82.12620117 133.80852051 81.45068359 133.35571289 C74.69702919 128.81773107 67.98771671 124.21488833 61.27734375 119.61328125 C55.42446146 115.60188028 49.55633987 111.61300336 43.6875 107.625 C33.02745398 100.38019045 22.37551379 93.12360335 11.72802734 85.86035156 C8.91952068 83.94511792 6.11024726 82.03101355 3.30078125 80.1171875 C-7.48355058 72.76989445 -18.25328369 65.4021985 -29 58 C-23.24005065 45.71662974 -17.33796299 33.51457269 -11.25830078 21.38623047 C-9.96993113 18.81499061 -8.68599915 16.24156487 -7.40234375 13.66796875 C-6.58098651 12.02591292 -5.75938205 10.38398072 -4.9375 8.7421875 C-4.55529297 7.97574921 -4.17308594 7.20931091 -3.77929688 6.41964722 C-1.11503848 1.11503848 -1.11503848 1.11503848 0 0 Z " fill="#C68469" transform="translate(110,277)"/>
<!-- top cone shadow -->
<!-- <path d="M0 0 C4.69041847 2.31931122 9.37257355 4.65379251 14.04296875 7.01318359 C15.608858 7.80276997 17.17877597 8.58436479 18.75 9.36328125 C27.99928469 14.16960597 34.86835024 20.94963588 40 30 C40.50402344 30.87527344 41.00804687 31.75054687 41.52734375 32.65234375 C43.08100167 36.18413378 43.86348799 39.47028339 44.63378906 43.2331543 C48.70002028 63.09278536 57.92020228 78.405495 75 90 C84.15438852 95.43031799 94.76048709 97.50643986 105 100 C104.85900879 100.5983667 104.71801758 101.1967334 104.57275391 101.81323242 C99.22392881 124.62130602 95.27742479 147.47616261 96 171 C89.64928281 165.75099619 83.83561447 160.00470612 78.00341797 154.19628906 C76.90723522 153.10802229 75.81087617 152.01993308 74.71435547 150.93200684 C71.13658874 147.38026934 67.56409847 143.82325004 63.9921875 140.265625 C62.75685309 139.0356566 61.52151294 137.80569396 60.28616714 136.575737 C55.14698147 131.45814465 50.00922518 126.33912439 44.8751812 121.21637344 C37.54188244 113.8993187 30.2002231 106.59088939 22.84663284 99.29422593 C17.66143867 94.14779889 12.48592727 88.99175976 7.31744111 83.82855392 C4.2366421 80.75139662 1.15185696 77.67850922 -1.94336319 74.61585236 C-4.85515737 71.73426112 -7.75469613 68.84086823 -10.64555359 65.9382782 C-11.70337031 64.88024182 -12.76541498 63.82641152 -13.83213425 62.77735138 C-20.61408828 56.10153685 -26.6817317 49.50127347 -28.62890625 39.8984375 C-28.60699219 39.06570312 -28.58507812 38.23296875 -28.5625 37.375 C-28.56378906 36.53710938 -28.56507813 35.69921875 -28.56640625 34.8359375 C-26.5282474 24.63108699 -18.89462807 18.42637718 -11.75 11.5 C-10.61105405 10.38114929 -9.47302438 9.26136503 -8.3359375 8.140625 C-5.56774988 5.41619383 -2.78742955 2.70473538 0 0 Z " fill="#F7B357" transform="translate(172,103)"/> -->
<!-- right cone middle section -->
<path d="M0 0 C7.714879 4.84367633 15.29347745 9.85835936 22.8125 15 C24.4611923 16.12434282 26.10988494 17.24868514 27.75860596 18.37298584 C29.42786729 19.51171854 31.09658247 20.65124716 32.76513672 21.79101562 C35.79128279 23.85747371 38.81905745 25.92151385 41.84765625 27.984375 C51.17522801 34.33825779 60.4960336 40.70196058 69.80688477 47.08032227 C74.05977493 49.99268077 78.31781026 52.89722094 82.58203125 55.79296875 C92.81042287 62.74218154 102.98940799 69.73975835 113 77 C110.85450909 79.34621164 108.85497831 80.74635414 106 82.12890625 C105.2054541 82.51876709 104.4109082 82.90862793 103.59228516 83.31030273 C102.73683105 83.72352783 101.88137695 84.13675293 101 84.5625 C99.17362781 85.45920557 97.34812626 86.3576863 95.5234375 87.2578125 C94.59756836 87.71446289 93.67169922 88.17111328 92.71777344 88.64160156 C88.65131207 90.67410166 84.63837721 92.80264308 80.625 94.9375 C78.27183662 96.17688588 75.91734066 97.41370657 73.5625 98.64990234 C71.74223833 99.60893884 69.92481515 100.57337138 68.109375 101.54150391 C65.1235194 103.12870662 62.12575397 104.69118285 59.125 106.25 C57.72435303 107.00398071 57.72435303 107.00398071 56.29541016 107.77319336 C55.41675293 108.2244458 54.5380957 108.67569824 53.6328125 109.140625 C52.47096436 109.75212402 52.47096436 109.75212402 51.28564453 110.37597656 C48.21736488 111.21367393 46.78224546 110.42239525 44 109 C42.32463149 107.9847099 40.68154124 106.91539576 39.0625 105.8125 C38.01320313 105.1009375 36.96390625 104.389375 35.8828125 103.65625 C35.27985352 103.24375 34.67689453 102.83125 34.05566406 102.40625 C31.70418246 100.79763551 29.34826012 99.1956324 26.9921875 97.59375 C19.6617614 92.60604416 12.34245798 87.60207697 5.0234375 82.59765625 C4.23831787 82.06084229 3.45319824 81.52402832 2.64428711 80.97094727 C1.10002996 79.91400988 -0.44343868 78.85591943 -1.98608398 77.79663086 C-6.0979876 74.97458211 -10.22402628 72.17642256 -14.37109375 69.40625 C-15.24999268 68.81537598 -16.1288916 68.22450195 -17.03442383 67.61572266 C-18.72654245 66.47871335 -20.42283803 65.34788903 -22.1237793 64.22412109 C-22.87957275 63.71445801 -23.63536621 63.20479492 -24.4140625 62.6796875 C-25.0838916 62.23351074 -25.7537207 61.78733398 -26.44384766 61.32763672 C-28 60 -28 60 -29 57 C-28.24276733 54.87753296 -28.24276733 54.87753296 -26.98974609 52.39599609 C-26.52531097 51.46427582 -26.06087585 50.53255554 -25.58236694 49.57260132 C-25.06792023 48.56637726 -24.55347351 47.5601532 -24.0234375 46.5234375 C-23.50117584 45.48361725 -22.97891418 44.443797 -22.44082642 43.37246704 C-20.76149391 40.03520735 -19.0682167 36.70523303 -17.375 33.375 C-16.25563918 31.15278239 -15.13713907 28.93013101 -14.01953125 26.70703125 C-9.48926062 17.72065208 -4.96143878 8.75802985 0 0 Z " fill="#D89C80" transform="translate(74,348)"/>
<!-- middle cone shadow -->
<!-- <path d="M0 0 C3.78301227 1.56943684 6.17256547 3.93101277 9.04394531 6.81689453 C9.53220795 7.30486511 10.02047058 7.79283569 10.52352905 8.29559326 C12.12984962 9.90330275 13.72897713 11.51797101 15.328125 13.1328125 C16.44298317 14.25140235 17.55828487 15.36955029 18.67401123 16.48727417 C21.60470609 19.42559325 24.52934422 22.36986955 27.45275879 25.31542969 C30.43882725 28.32198262 33.43058859 31.32285882 36.421875 34.32421875 C42.28683456 40.21060686 48.14540732 46.103301 54 52 C51.74556454 53.69271006 49.48753467 55.3798442 47.22265625 57.05859375 C39.00553901 63.24428522 31.41804879 69.88106608 24 77 C23.175 77.78375 22.35 78.5675 21.5 79.375 C16.64368123 84.09642103 12.32123352 89.11936924 8.0859375 94.40234375 C5.463581 97.66801242 2.74276069 100.83527612 0 104 C-7.79929853 99.12699598 -15.40477091 94.0243864 -22.9375 88.75 C-24.45827148 87.69039062 -24.45827148 87.69039062 -26.00976562 86.609375 C-30.04792933 83.79093423 -34.07606659 80.97634584 -38 78 C-37.38669854 73.60605186 -35.68625957 70.06459621 -33.6328125 66.19140625 C-33.28583313 65.52393372 -32.93885376 64.85646118 -32.58135986 64.16876221 C-31.82839135 62.72130778 -31.07271396 61.27525998 -30.31463623 59.83047485 C-28.27439229 55.94086404 -26.25496013 52.0404745 -24.234375 48.140625 C-23.81131073 47.32507645 -23.38824646 46.50952789 -22.95236206 45.66926575 C-17.99760379 36.09834701 -13.18278974 26.4578537 -8.375 16.8125 C-7.74105316 15.54153976 -7.74105316 15.54153976 -7.09429932 14.24490356 C-4.72676126 9.49797877 -2.36199324 4.74968611 0 0 Z " fill="#C68469" transform="translate(156,185)"/> -->
<!-- bottom cone left section -->
<path d="M0 0 C3.55335076 0.79761483 5.85222495 2.05300879 8.875 4.125 C9.93332031 4.84558594 10.99164063 5.56617188 12.08203125 6.30859375 C12.69127441 6.72737793 13.30051758 7.14616211 13.92822266 7.57763672 C16.28468429 9.19544788 18.64788388 10.80313801 21.01171875 12.41015625 C28.42460212 17.45264087 35.82739793 22.50982904 43.22265625 27.578125 C51.7786884 33.44161731 60.34565023 39.28225594 69 45 C66.57406406 47.74018878 64.02646365 49.17401638 60.76586914 50.80322266 C59.16389427 51.60888168 59.16389427 51.60888168 57.52955627 52.43081665 C56.37640427 53.00278778 55.22325226 53.57475891 54.03515625 54.1640625 C52.83812864 54.76231684 51.64130847 55.36098642 50.44468689 55.96005249 C47.93903296 57.21283465 45.43136761 58.46146495 42.92211914 59.70703125 C39.70970767 61.3018938 36.50180016 62.90557584 33.29526615 64.51221657 C30.82522225 65.74891118 28.35319718 66.98160066 25.88052177 68.21302414 C24.12253957 69.08916124 22.36595411 69.96809911 20.60939026 70.84707642 C19.00268715 71.64327896 19.00268715 71.64327896 17.36352539 72.45556641 C16.42215225 72.92394928 15.48077911 73.39233215 14.51087952 73.87490845 C8.27324816 76.66990769 1.47033581 77.03780027 -5.0625 74.9375 C-12.49369182 71.77813102 -17.60771546 66.19164323 -21 59 C-23.77706881 49.72187796 -21.51626949 42.58213842 -17.1875 34.25 C-16.69918701 33.271521 -16.21087402 32.29304199 -15.70776367 31.28491211 C-14.6805853 29.23170415 -13.64470204 27.18283024 -12.60058594 25.13818359 C-10.98634142 21.97322034 -9.39961241 18.79580986 -7.8203125 15.61328125 C-5.23135758 10.39979861 -2.62310737 5.19637493 0 0 Z " fill="#B67159" transform="translate(37,421)"/>
<!-- middle cone shadow -->
<!-- <path d="M0 0 C7.67713856 4.8178201 15.2144837 9.80955144 22.6875 14.9375 C23.68716797 15.62134766 24.68683594 16.30519531 25.71679688 17.00976562 C28.14562228 18.67159354 30.57333513 20.33501954 33 22 C30.68586387 29.31021809 27.83951932 36.30742528 24.875 43.375 C19.21079867 57.04153782 14.48121355 70.90155483 10 85 C3.33572989 81.49354701 -2.81037485 77.49407145 -8.9375 73.125 C-9.76701172 72.53847656 -10.59652344 71.95195312 -11.45117188 71.34765625 C-13.11685802 70.16989837 -14.78142422 68.99055483 -16.44482422 67.80957031 C-20.61708561 64.85478325 -24.80855455 61.92748273 -29 59 C-27.35025843 53.37102867 -24.79747736 48.32297951 -22.16796875 43.10546875 C-21.69434402 42.15867752 -21.2207193 41.21188629 -20.73274231 40.23640442 C-19.73184596 38.23762569 -18.72901114 36.23981664 -17.72436523 34.24291992 C-16.19903898 31.21044048 -14.68007177 28.17484296 -13.16210938 25.13867188 C-12.18527165 23.18991574 -11.20806977 21.24134209 -10.23046875 19.29296875 C-9.78132614 18.39579636 -9.33218353 17.49862396 -8.86943054 16.57426453 C-6.04688936 10.97070989 -3.09149377 5.45979502 0 0 Z " fill="#C58369" transform="translate(74,348)"/> -->
<!-- middle cone shadow -->
<!-- <path d="M0 0 C3.686736 0.48539772 6.24799602 2.30236792 9.2890625 4.3515625 C10.82626953 5.38216797 10.82626953 5.38216797 12.39453125 6.43359375 C13.99361328 7.51833984 13.99361328 7.51833984 15.625 8.625 C16.66785156 9.32496094 17.71070313 10.02492188 18.78515625 10.74609375 C25.24193031 15.09091424 31.64166279 19.51249146 38 24 C37.01 25.485 37.01 25.485 36 27 C35.34 27 34.68 27 34 27 C33.773125 27.66644531 33.54625 28.33289063 33.3125 29.01953125 C31.61285678 32.87913772 29.3442239 36.19291468 27 39.6875 C21.17025941 48.53435319 16.0219884 57.67715137 11 67 C10.27358303 68.34122466 9.54702671 69.68237386 8.8203125 71.0234375 C7.20331121 74.01017398 5.60078466 77.00454284 4 80 C-3.67713856 75.1821799 -11.2144837 70.19044856 -18.6875 65.0625 C-19.68716797 64.37865234 -20.68683594 63.69480469 -21.71679688 62.99023438 C-24.14562228 61.32840646 -26.57333513 59.66498046 -29 58 C-23.24005065 45.71662974 -17.33796299 33.51457269 -11.25830078 21.38623047 C-9.96993113 18.81499061 -8.68599915 16.24156487 -7.40234375 13.66796875 C-6.58098651 12.02591292 -5.75938205 10.38398072 -4.9375 8.7421875 C-4.55529297 7.97574921 -4.17308594 7.20931091 -3.77929688 6.41964722 C-1.11503848 1.11503848 -1.11503848 1.11503848 0 0 Z " fill="#B57159" transform="translate(110,277)"/> -->
<!-- right cheek -->
<!-- <path d="M0 0 C3.375 2 3.375 2 4.26953125 3.9453125 C4.8125 6.125 4.8125 6.125 5.375 10 C6.59007525 11.43484963 6.59007525 11.43484963 10.1875 11.25 C13.37900537 11.63184082 14.19272897 11.83743395 16.6875 14.0625 C20.81711982 21.25109747 22.4594997 27.64082252 21.375 36 C19.59176494 41.94411686 16.40551569 45.50943809 11.375 49 C4.83454049 52.07401597 -1.94974355 52.23263842 -8.79296875 49.9375 C-18.4229725 45.44593931 -25.86368614 39.11517174 -29.625 29 C-31.50733793 22.9560306 -31.89208263 15.47901566 -29.71875 9.51171875 C-23.35479454 -1.3192439 -11.50794677 -3.29401779 0 0 Z " fill="#FEFDFD" transform="translate(414.625,188)"/> -->
<!-- left cheek -->
<!-- <path d="M0 0 C7.75345982 3.86283482 7.75345982 3.86283482 9.58203125 5.69140625 C9.97351886 7.20306279 10.32175582 8.72610257 10.64453125 10.25390625 C10.82113281 11.08019531 10.99773437 11.90648438 11.1796875 12.7578125 C11.37884766 13.71494141 11.37884766 13.71494141 11.58203125 14.69140625 C12.84015625 14.83578125 14.09828125 14.98015625 15.39453125 15.12890625 C18.05885567 15.80323969 19.23125767 16.16924493 20.78125 18.4765625 C23.55480415 26.14780739 23.85499325 33.60185103 20.45703125 41.06640625 C17.86401583 45.74558704 14.95862747 48.65789881 9.71875 50.26171875 C1.45067109 51.92440372 -6.08743236 50.81407064 -13.41796875 46.69140625 C-20.82330131 41.59611504 -27.65314938 33.69198502 -29.41796875 24.69140625 C-30.08947482 17.19991665 -30.10936882 11.74084318 -25.41796875 5.69140625 C-18.10079117 -1.62577133 -9.87507817 -3.78074421 0 0 Z " fill="#FEFDFD" transform="translate(302.41796875,77.30859375)"/> -->
<!-- left eye -->
<path d="M0 0 C3.81585068 2.10285269 6.38205515 4.03157044 8.6875 7.8125 C9.265 8.699375 9.8425 9.58625 10.4375 10.5 C12.39877085 15.69736777 12.70219443 20.77362028 10.92578125 26.09375 C9.14651526 29.86326214 7.19807891 33.47211406 3.6875 35.8125 C0.72670352 36.38904455 -1.21864599 36.20537035 -4.3125 35.8125 C-7.01665801 33.61537161 -7.25742745 32.25308039 -7.6875 28.8125 C-7.3125 25.8125 -7.3125 25.8125 -5.75 23.875 C-3.91909449 21.71553037 -3.91909449 21.71553037 -4.625 18.0625 C-4.851875 16.99 -5.07875 15.9175 -5.3125 14.8125 C-8.62434707 14.04118094 -8.62434707 14.04118094 -12.3125 13.8125 C-13.67983028 14.76548777 -15.01514493 15.76624591 -16.3125 16.8125 C-19.93002119 17.34005517 -21.61432885 17.27182313 -24.6875 15.25 C-26.96220619 11.83794071 -26.94784983 9.83638226 -26.3125 5.8125 C-19.68834277 -3.01970965 -9.53614227 -4.44552515 0 0 Z " fill="#050202" transform="translate(338.3125,77.1875)"/>
<!-- right eye -->
<path d="M0 0 C3.77928665 2.10551807 6.33691213 4.06003589 8.625 7.8125 C9.2025 8.699375 9.78 9.58625 10.375 10.5 C12.33627085 15.69736777 12.63969443 20.77362028 10.86328125 26.09375 C9.08401526 29.86326214 7.13557891 33.47211406 3.625 35.8125 C0.66420352 36.38904455 -1.28114599 36.20537035 -4.375 35.8125 C-7.07915801 33.61537161 -7.31992745 32.25308039 -7.75 28.8125 C-7.375 25.8125 -7.375 25.8125 -5.8125 23.875 C-3.98159449 21.71553037 -3.98159449 21.71553037 -4.6875 18.0625 C-4.914375 16.99 -5.14125 15.9175 -5.375 14.8125 C-8.68684707 14.04118094 -8.68684707 14.04118094 -12.375 13.8125 C-13.74233028 14.76548777 -15.07764493 15.76624591 -16.375 16.8125 C-19.99252119 17.34005517 -21.67682885 17.27182313 -24.75 15.25 C-27.02470619 11.83794071 -27.01034983 9.83638226 -26.375 5.8125 C-19.5277937 -3.0485905 -9.8524415 -4.60652501 0 0 Z " fill="#050203" transform="translate(425.375,164.1875)"/>
<!-- mouth -->
<path d="M0 0 C2.3125 1.375 2.3125 1.375 4 4 C4.38238858 5.6561002 4.7109656 7.32508269 5 9 C5.53091977 12.00854537 5.91515769 13.85859615 7.5 16.5 C10.77154847 18.46292908 13.91987379 18.81360654 17.6484375 19.45703125 C20 20 20 20 22.625 21.6875 C24.59842721 25.00644576 24.54133422 27.21066044 24 31 C22.6875 33.4375 22.6875 33.4375 20 35 C13.09737282 36.20938592 7.3532715 35.0336429 1.29296875 31.61328125 C-4.90244964 27.25432419 -9.47186347 21.50424189 -11 14 C-11.56514264 9.32344469 -11.89295659 5.50016707 -9.4375 1.375 C-6.03897329 -0.54211763 -3.84031465 -0.54861638 0 0 Z " fill="#050202" transform="translate(354,134)"/>
<!-- bottom cone shadow -->
<!-- <path d="M0 0 C3.65048591 1.32848039 6.62151474 2.95146023 9.79296875 5.1875 C10.67017578 5.80367188 11.54738281 6.41984375 12.45117188 7.0546875 C13.35416016 7.69664062 14.25714844 8.33859375 15.1875 9 C16.55938477 9.96292969 16.55938477 9.96292969 17.95898438 10.9453125 C24.70453477 15.70453477 24.70453477 15.70453477 27 18 C9.03289204 27.52539169 9.03289204 27.52539169 0 32.125 C-1.093125 32.68445313 -2.18625 33.24390625 -3.3125 33.8203125 C-6 35 -6 35 -9 35 C-2.40350877 2.40350877 -2.40350877 2.40350877 0 0 Z " fill="#C48368" transform="translate(79,449)"/> -->
<!--  -->
<!-- <path d="M0 0 C-0.61875 0.061875 -1.2375 0.12375 -1.875 0.1875 C-4.27761141 0.828919 -4.27761141 0.828919 -5.25 3.5625 C-5.4975 4.366875 -5.745 5.17125 -6 6 C-6.99 6 -7.98 6 -9 6 C-9 3 -9 3 -7.3125 1.3125 C-4.6402007 -0.20421041 -3.02346601 -0.2519555 0 0 Z " fill="#E4485C" transform="translate(331,90)"/> -->
</svg>
